<?xml version="1.0" encoding="UTF-8" standalone="no"?>
<!-- Created with Inkscape (http://www.inkscape.org/) -->

<svg
   width="82.010002mm"
   height="89.372002mm"
   viewBox="-3 -3 91.276706 99.470574"
   version="1.1"
   id="svg1"
   xml:space="preserve"
   inkscape:version="1.3.2 (091e20e, 2023-11-25)"
   sodipodi:docname="logo-modern_traced.svg"
   xmlns:inkscape="http://www.inkscape.org/namespaces/inkscape"
   xmlns:sodipodi="http://sodipodi.sourceforge.net/DTD/sodipodi-0.dtd"
   xmlns="http://www.w3.org/2000/svg"
   xmlns:svg="http://www.w3.org/2000/svg"><sodipodi:namedview
     id="namedview1"
     pagecolor="#ffffff"
     bordercolor="#666666"
     borderopacity="1.0"
     inkscape:showpageshadow="2"
     inkscape:pageopacity="0.0"
     inkscape:pagecheckerboard="0"
     inkscape:deskcolor="#d1d1d1"
     inkscape:document-units="mm"
     inkscape:zoom="0.95789214"
     inkscape:cx="116.92339"
     inkscape:cy="244.28638"
     inkscape:current-layer="g1156680" /><defs
     id="defs1" /><g
     inkscape:label="Layer 1"
     inkscape:groupmode="layer"
     id="layer1"
     transform="translate(-14.16479,-24.118478)"><g
       id="g1156680"
       transform="matrix(0.99999764,0,0,0.99999764,-16.920075,165.95512)"
       style="fill:#111787;fill-opacity:1;stroke:none"><path
         style="fill:#111787;fill-opacity:1;stroke:none;stroke-width:0.00423335mm;stroke-opacity:1"
         d="m 51.320345,-141.73843 -0.296334,0.10106 -0.169335,0.33866 -0.169333,0.33867 -0.04674,2.66701 -0.04674,2.66701 -0.15181,1.27001 c -0.08349,0.6985 -0.16593,1.34763 -0.18319,1.44251 l -0.03138,0.17252 -0.743738,0.59566 c -0.727023,0.58228 -2.310396,2.00808 -3.243026,2.92028 -2.288944,2.23882 -5.083653,5.92468 -6.541517,8.62742 -0.138151,0.25612 -0.332194,0.54793 -0.431208,0.64849 l -0.180025,0.18282 -1.397005,0.46333 c -1.767927,0.58634 -2.685403,0.83525 -4.273884,1.15948 -1.356845,0.27695 -1.889867,0.48034 -2.160478,0.82437 l -0.169664,0.21569 v 0.32997 c 0,0.38749 0.165475,0.81768 0.390483,1.01516 0.270176,0.23711 0.784693,0.31786 2.107193,0.33073 1.438089,0.014 3.353927,0.14772 3.451997,0.24097 0.03592,0.0342 -0.07296,0.44039 -0.24196,0.90273 -0.364793,0.99797 -0.360762,0.98556 -0.740642,2.27996 -2.675737,9.11727 -2.10491,18.695926 1.637305,27.474438 1.226029,2.876032 2.882777,5.782117 4.672736,8.196406 2.05539,2.772301 4.975262,5.753534 7.780274,7.943774 5.345598,4.174009 12.190326,7.091697 18.915763,8.063186 0.325969,0.04708 0.745069,0.107911 0.931337,0.135168 1.04761,0.153297 3.339642,0.295968 4.741353,0.295134 l 1.608673,-9.57e-4 -0.150359,-0.114077 c -0.0827,-0.06274 -0.730403,-0.313399 -1.439339,-0.557013 -1.523959,-0.52368 -4.854446,-1.843669 -5.594394,-2.217252 -0.5978,-0.301815 -0.789205,-0.363944 -1.66361,-0.539996 -2.215827,-0.446133 -4.732962,-1.230104 -7.112028,-2.215064 -1.227615,-0.508248 -3.656949,-1.71103 -4.379014,-2.168083 -0.176002,-0.111406 -0.681955,-0.42479 -1.124341,-0.696408 -0.783332,-0.480954 -2.962257,-2.009027 -3.38668,-2.375068 -0.116417,-0.100403 -0.573618,-0.481213 -1.016004,-0.846241 -1.775294,-1.46487 -4.165641,-4.006911 -5.764336,-6.130149 -4.278635,-5.682482 -6.944558,-12.710747 -7.52479,-19.837854 -0.180487,-2.216964 -0.06267,-6.132814 0.242509,-8.059924 0.04425,-0.2794 0.121438,-0.78636 0.171539,-1.12657 0.28309,-1.92235 1.085655,-4.85476 1.962557,-7.17079 l 0.320568,-0.84667 0.366393,0.004 c 0.321725,0.004 1.588779,0.24069 2.550813,0.47723 l 0.326286,0.0802 -0.04217,0.22721 c -0.02319,0.12497 -0.183062,0.58916 -0.355267,1.03155 -0.998489,2.56507 -1.661862,5.15245 -2.040515,7.95869 -0.07226,0.53552 -0.17009,1.39278 -0.217402,1.90501 l -0.08602,0.93134 0.04153,2.582342 0.04153,2.582343 0.08298,0.254002 c 0.04564,0.139702 0.127434,0.65405 0.181764,1.143004 0.20405,1.836397 0.845414,4.538811 1.567336,6.604026 0.53586,1.532951 0.912698,2.421131 1.74225,4.10635 l 0.833549,1.69334 0.830945,1.280195 c 1.172002,1.805647 1.469111,2.222465 2.431183,3.410748 1.251897,1.546253 4.106502,4.447263 4.242401,4.311367 0.02048,-0.02048 -0.05808,-0.17751 -0.174587,-0.348954 -0.1165,-0.171445 -0.368635,-0.626481 -0.560302,-1.011191 -0.191665,-0.384709 -0.611961,-1.13356 -0.933991,-1.664114 -0.646138,-1.064533 -1.081425,-1.89714 -1.344523,-2.571768 -0.09501,-0.243616 -0.320247,-0.690589 -0.50053,-0.993274 -0.379177,-0.636612 -0.459245,-0.838957 -0.921338,-2.328342 -0.62916,-2.027872 -0.708401,-2.502413 -1.025893,-6.143645 l -0.17395,-1.994961 0.08757,-1.64572 c 0.186713,-3.5089 0.315509,-4.078914 1.993708,-8.823578 l 0.322753,-0.9125 0.08083,0.0808 0.08083,0.0808 -0.116536,1.001 -0.116536,1.001 0.0047,2.07434 c 0.0072,3.181565 0.0978,3.96029 0.916599,7.874031 0.33853,1.618138 1.009933,3.798422 1.916131,6.222361 1.151125,3.079077 1.873515,4.514744 3.491547,6.939056 2.591105,3.882263 7.483234,8.382914 10.635455,9.784376 0.495111,0.220124 1.153247,0.517163 1.462521,0.660086 0.93728,0.433139 1.821252,0.692268 2.812692,0.82452 0.518653,0.06918 1.247808,0.166298 1.620342,0.215807 0.372533,0.04951 1.077388,0.07747 1.566339,0.06212 l 0.889004,-0.0279 0.04233,-3.51368 c 0.02329,-1.932525 0.07499,-3.580377 0.114908,-3.661894 l 0.07258,-0.148214 -0.46218,-0.499207 c -0.447065,-0.482887 -1.861181,-2.521031 -1.978614,-2.851754 -0.03176,-0.08944 -0.151233,-0.288989 -0.265498,-0.44343 -0.212384,-0.287061 -1.291211,-2.556513 -1.291211,-2.716227 0,-0.04856 -0.100562,-0.30815 -0.223473,-0.576858 -0.12291,-0.268709 -0.2948,-0.736566 -0.381976,-1.03968 -1.112972,-3.869805 -1.22533,-7.910729 -0.331324,-11.916035 0.368855,-1.652531 1.569424,-4.622734 2.306291,-5.705757 0.178102,-0.261763 0.323822,-0.499151 0.323822,-0.527521 0,-0.02837 0.13924,-0.2714 0.309424,-0.54006 0.793224,-1.25224 2.386236,-3.08588 3.754592,-4.32172 0.488954,-0.44161 0.93342,-0.88482 0.987711,-0.98493 0.103829,-0.19143 0.319398,-1.40464 0.415114,-2.33619 0.07488,-0.72875 0.244523,-1.13017 0.588508,-1.39253 0.418271,-0.31903 0.645721,-0.38763 1.903349,-0.57402 l 1.143005,-0.16939 2.328342,-0.066 c 1.280588,-0.0363 4.666049,-0.0701 7.52325,-0.075 l 5.194908,-0.009 0.604781,0.13646 c 0.78394,0.17689 1.80182,0.57295 2.31498,0.90077 0.471621,0.30128 1.240792,0.73336 1.845812,1.03689 0.23284,0.11681 0.60335,0.35515 0.82338,0.52964 0.22001,0.17449 0.81014,0.6411 1.31139,1.03692 0.50125,0.39582 1.12842,0.92922 1.39374,1.18534 1.19628,1.15482 3.20159,3.33421 3.56155,3.87072 0.42582,0.63468 0.62674,0.84442 0.71976,0.7514 0.0637,-0.0637 -0.27016,-1.8795 -0.42167,-2.29378 -0.0511,-0.1397 -0.24007,-0.57002 -0.41995,-0.95628 -0.17987,-0.38625 -0.40605,-0.91966 -0.5026,-1.18534 -0.15263,-0.41992 -0.51578,-1.22472 -1.61246,-3.5734 -0.698,-1.49484 -3.11033,-4.63986 -5.02859,-6.55588 -1.03914,-1.03793 -2.922038,-2.59548 -3.930895,-3.25168 -2.254043,-1.76839 -4.849527,-2.73758 -7.48242,-3.77755 -1.018634,-0.40255 -2.123543,-0.82192 -2.455343,-0.93195 -0.07184,-0.0238 -4.509024,-1.49144 -8.900645,-1.86113 -1.906826,-0.16053 -4.499118,-0.20368 -5.958755,-0.0992 l -1.04807,0.075 c 3.859134,-3.18693 16.734917,-2.56455 22.712557,0.14424 3.125618,1.41639 6.262471,2.94709 10.110591,7.37736 1.36502,1.57152 1.51171,1.75833 2.20402,2.8067 0.36135,0.54719 0.6887,1.01449 0.72744,1.03843 l 0.0704,0.0435 -0.0687,-0.23447 c -0.19267,-0.6574 -1.10369,-2.52424 -1.96009,-4.01654 -4.4959,-7.8343 -11.889118,-13.58306 -20.651072,-16.0577 -1.778255,-0.50223 -3.378598,-0.81715 -5.037686,-0.99132 -0.698503,-0.0733 -1.517656,-0.17237 -1.820341,-0.22011 l -0.550336,-0.0868 -2.243675,0.0414 c -1.234022,0.0228 -2.434176,0.0638 -2.667011,0.0911 -0.232834,0.0273 -0.804336,0.0914 -1.270004,0.14247 -3.734839,0.4093 -7.487555,1.52444 -11.091378,3.29585 -0.931336,0.45779 -2.050722,1.04834 -2.487527,1.31234 l -0.794184,0.47999 -0.152439,-0.15597 c -0.144209,-0.14755 -1.022399,-1.86412 -1.262979,-2.4687 l -0.11171,-0.28074 0.11841,-0.11667 c 0.194782,-0.19192 1.962128,-1.19244 3.109982,-1.76059 2.970771,-1.47047 5.702871,-2.41721 9.200478,-3.1882 1.140213,-0.25134 2.699561,-0.48301 4.656685,-0.69186 1.18716,-0.12667 4.839258,-0.12721 5.863189,-8.4e-4 0.430745,0.0531 1.135595,0.13552 1.56634,0.18304 1.599025,0.17642 2.938959,0.43194 4.974186,0.94853 6.069074,1.54051 11.935949,4.74588 16.382652,8.95068 2.69662,2.54992 4.61318,4.87076 6.43668,7.79446 0.63459,1.01745 2.1678,3.94367 2.57299,4.91068 1.62899,3.88771 2.4607,7.10822 2.97369,11.51471 0.0515,0.44239 0.12607,1.71874 0.16571,2.83635 l 0.0721,2.032003 0.19733,1.270005 0.19733,1.270005 -0.008,3.894682 c -0.004,2.142075 -0.035,4.26616 -0.0686,4.720186 l -0.061,0.825469 h 0.0741 c 0.1289,0 0.91032,-2.54255 1.23602,-4.021682 0.67197,-3.051739 0.92105,-4.992687 1.03216,-8.043366 l 0.0555,-1.524002 -0.0955,-1.82732 c -0.11993,-2.29583 -0.32085,-3.88103 -0.77314,-6.10012 -0.49861,-2.44639 -1.54041,-5.84854 -2.31701,-7.56662 -0.0632,-0.1397 -0.23829,-0.53975 -0.38923,-0.889 -0.5544,-1.28291 -1.89675,-3.82447 -2.37368,-4.49425 -0.0904,-0.127 -0.16442,-0.25488 -0.16442,-0.28416 0,-0.0897 -1.17246,-1.81405 -1.90338,-2.79929 -1.51193,-2.03801 -3.77215,-4.50666 -5.67432,-6.1976 -3.363301,-2.98979 -7.532355,-5.57214 -11.682485,-7.2362 -1.772256,-0.71061 -4.54665,-1.58501 -6.012917,-1.89508 -0.372537,-0.0788 -0.829736,-0.17685 -1.016004,-0.21793 -1.357954,-0.29948 -2.900661,-0.52206 -4.910686,-0.70851 l -1.354672,-0.12565 -1.882451,-0.001 -1.882451,-10e-4 -1.377229,0.12629 c -3.04758,0.27946 -4.874132,0.59869 -7.600253,1.32836 -1.45532,0.38953 -3.700574,1.14328 -4.614351,1.5491 -0.1397,0.062 -0.501652,0.2152 -0.804337,0.34036 -0.865687,0.35797 -2.555893,1.19705 -3.702628,1.83815 l -1.049617,0.58679 -0.112177,-0.0931 c -0.0617,-0.0512 -0.130768,-0.17766 -0.153488,-0.28102 -0.02272,-0.10335 -0.155692,-0.62607 -0.295492,-1.16159 -0.139801,-0.53551 -0.317931,-1.31657 -0.39584,-1.73567 -0.527994,-2.84024 -0.530694,-2.84828 -1.02565,-3.05508 -0.338929,-0.14161 -0.410093,-0.14244 -0.800471,-0.009 z"
         id="path1"
         sodipodi:nodetypes="ccccccsscsssscssscssscsssssssscssssssssssssssccccsssscccsssscsssssssssscsscccccssssssssscsscssssssssssssssscsccsssssssssssssssssscsssscscscsccscsscsscscsscscsssssccccccsssccsccsssssssscccsscsscssssscc" /><path
         style="fill:#ffffff;fill-opacity:1;stroke:none;stroke-width:0.00423335mm;stroke-opacity:1"
         d="m 52.897526,-132.61939 c 0.381937,1.05645 1.008793,2.45369 1.461987,3.25873 0.944439,1.67767 3.055825,4.14959 4.211196,4.93029 1.435251,0.96982 3.733957,1.9425 5.449686,2.306 0.256117,0.0543 0.770471,0.16953 1.143004,0.25616 0.763706,0.1776 1.039156,0.23645 3.005679,0.64223 0.768354,0.15855 1.480251,0.28859 1.581995,0.28898 0.101744,4.2e-4 0.28686,0.0394 0.411369,0.0868 l 0.226383,0.0861 -0.104237,0.1256 c -0.05733,0.0691 -0.18546,0.12559 -0.284736,0.12559 -0.09928,0 -0.447037,0.0976 -0.772803,0.21691 -0.325767,0.11929 -0.897105,0.32452 -1.269639,0.45606 -1.124956,0.3972 -1.546206,0.57951 -3.059546,1.32412 -1.810044,0.89058 -2.530736,1.35834 -3.729526,2.42062 -1.150823,1.01977 -1.403976,1.30236 -2.128395,2.3759 -1.38322,2.04985 -2.251995,3.86126 -2.77188,5.77944 -0.261172,0.96363 -0.541138,2.47275 -0.543474,2.92955 -0.0021,0.40096 -0.158621,0.83813 -0.300169,0.83813 h -0.112711 l -0.138171,-0.48683 c -0.307419,-1.08318 -1.440658,-3.47952 -2.181428,-4.61284 -0.957212,-1.46446 -2.426948,-3.03218 -3.811661,-4.06578 -1.332,-0.99424 -3.53836,-2.15981 -4.802798,-2.53718 -0.754048,-0.22505 -2.368244,-0.61085 -3.090345,-0.7386 -1.024267,-0.18122 -1.995863,-0.33439 -2.60826,-0.4112 -0.710584,-0.0891 -0.820515,-0.13572 -0.67156,-0.28468 0.09838,-0.0984 0.798139,-0.3738 1.247811,-0.49114 0.460259,-0.1201 2.155934,-0.84081 3.961985,-1.68396 1.33485,-0.62317 2.750438,-1.67834 4.213331,-3.14057 1.54459,-1.54389 2.80912,-3.47044 3.672425,-5.59505 0.402661,-0.99095 1.025852,-3.61593 1.112772,-4.68717 l 0.05979,-0.73692 0.135127,0.026 0.135129,0.026 z"
         id="path2" /><path
         style="fill:#ffffff;fill-opacity:1;stroke:none;stroke-width:0.00423335mm;stroke-opacity:1"
         d="m 66.032249,-129.96375 c 0.230519,0.50594 1.024167,1.15343 1.413787,1.15343 0.235739,0 0.136367,0.16283 -0.205941,0.33747 -0.494367,0.2522 -0.883699,0.6247 -1.05881,1.01303 -0.08503,0.18856 -0.185936,0.34284 -0.224233,0.34284 -0.0383,0 -0.126487,-0.10994 -0.195971,-0.24431 -0.183956,-0.35573 -0.867258,-0.92622 -1.244903,-1.03936 -0.387409,-0.11607 -0.40563,-0.17779 -0.09361,-0.31715 0.12806,-0.0572 0.379978,-0.20479 0.559818,-0.32801 l 0.326987,-0.22402 0.252598,-0.44758 c 0.13893,-0.24618 0.280948,-0.44758 0.315595,-0.44758 0.03465,0 0.104257,0.0905 0.154688,0.20124 z"
         id="path3" /><path
         style="fill:#ffffff;fill-opacity:1;stroke:none;stroke-width:0.00423335mm;stroke-opacity:1"
         d="m 48.590805,-127.39743 c -0.825487,1.60416 -2.131678,3.19627 -3.699141,4.50885 -1.071171,0.89699 -1.118794,0.82672 -0.236582,-0.34912 0.943096,-1.25697 1.989733,-2.48932 3.01424,-3.54906 0.895166,-0.92595 1.181301,-1.11557 0.921483,-0.61067 z"
         id="path4" /><path
         style="fill:#ffffff;fill-opacity:1;stroke:none;stroke-width:0.00423335mm;stroke-opacity:1"
         d="m 79.391978,-117.67675 c 0.245856,0.38896 0.74775,0.78255 1.12732,0.88407 0.116489,0.0312 0.226441,0.10057 0.244343,0.15427 l 0.03254,0.0976 -0.323361,0.13472 c -0.41684,0.17367 -0.899902,0.64651 -1.089091,1.06606 -0.08195,0.18172 -0.174289,0.3304 -0.205207,0.3304 -0.03092,0 -0.140447,-0.14987 -0.243397,-0.33304 -0.236028,-0.41996 -0.615237,-0.74224 -1.154436,-0.98115 l -0.421428,-0.18672 0.379095,-0.19001 c 0.480504,-0.24084 0.898274,-0.63285 1.107905,-1.03959 0.09,-0.17463 0.195436,-0.3175 0.234303,-0.3175 0.03887,0 0.179002,0.17139 0.311414,0.38086 z"
         id="path5" /><path
         style="fill:#ffffff;fill-opacity:1;stroke:none;stroke-width:0.00423335mm;stroke-opacity:1"
         d="m 66.593253,-109.65441 c 0.312755,0.69493 0.680923,1.13074 1.306851,1.54696 l 0.577533,0.38403 0.516882,0.14576 c 0.284286,0.0802 0.529187,0.17744 0.544225,0.21617 0.01504,0.0387 -0.258412,0.18085 -0.607663,0.31584 l -0.635002,0.24542 -0.445632,0.39022 c -0.551918,0.48329 -0.893966,0.97211 -1.081576,1.5457 -0.07927,0.24236 -0.175638,0.46013 -0.214145,0.48393 -0.03851,0.0238 -0.184654,-0.20441 -0.324767,-0.50713 -0.452874,-0.97844 -1.249906,-1.66533 -2.323294,-2.00226 -0.566024,-0.17766 -0.690761,-0.29334 -0.415439,-0.38525 0.08149,-0.0272 0.386619,-0.1575 0.678057,-0.28956 l 0.529892,-0.2401 0.464153,-0.43898 c 0.488687,-0.46218 0.822614,-0.97878 0.986705,-1.52647 0.05418,-0.18083 0.131057,-0.32879 0.170841,-0.32879 0.03978,0 0.162354,0.20003 0.272379,0.44451 z"
         id="path6" /><path
         style="fill:#ffffff;fill-opacity:1;stroke:none;stroke-width:0.00423335mm;stroke-opacity:1"
         d="m 46.275698,-108.50127 c 0.269145,0.42635 0.772238,0.83796 1.171132,0.95816 0.346713,0.10448 0.403082,0.19963 0.16334,0.27572 -0.08479,0.0269 -0.331193,0.1612 -0.547569,0.29842 l -0.393408,0.24949 -0.27248,0.48281 -0.27248,0.48281 -0.132455,-0.19134 c -0.07285,-0.10524 -0.276205,-0.35466 -0.451899,-0.55427 l -0.319444,-0.36292 -0.42419,-0.18248 -0.42419,-0.18248 0.05092,-0.0824 c 0.02801,-0.0453 0.174913,-0.1342 0.326458,-0.19752 0.409236,-0.17098 0.848549,-0.59118 1.023342,-0.9788 0.08503,-0.18857 0.186435,-0.34284 0.225346,-0.34284 0.03891,0 0.163819,0.14744 0.277577,0.32764 z"
         id="path7" /><path
         style="fill:#ffffff;fill-opacity:1;stroke:none;stroke-width:0.00423335mm;stroke-opacity:1"
         d="m 58.380707,-97.278201 c 0.214817,0.398892 0.522546,0.674142 1.046503,0.936055 0.244477,0.12221 0.444502,0.239046 0.444502,0.259639 0,0.02059 -0.172228,0.118401 -0.382728,0.217346 -0.419732,0.197303 -1.031246,0.831018 -1.072695,1.111653 -0.01444,0.09775 -0.07183,0.192723 -0.127536,0.211063 l -0.101286,0.03334 -0.175948,-0.344886 -0.175947,-0.344884 -0.398111,-0.288908 c -0.218962,-0.158901 -0.503783,-0.310045 -0.632936,-0.335878 l -0.234826,-0.04696 v -0.119937 c 0,-0.06596 0.0975,-0.144411 0.216672,-0.174321 0.294573,-0.07393 0.946226,-0.688736 1.146857,-1.082011 0.09016,-0.176718 0.192581,-0.321304 0.22761,-0.321304 0.03503,0 0.133971,0.130499 0.219869,0.289999 z"
         id="path8" /><path
         style="fill:#ffffff;fill-opacity:1;stroke:none;stroke-width:0.00423335mm;stroke-opacity:1"
         d="m 62.818239,-90.723461 c 0.282562,0.436068 0.755729,0.812604 1.138656,0.906121 0.330198,0.08064 0.288567,0.241655 -0.108813,0.420849 -0.367914,0.165905 -0.836891,0.634522 -1.052744,1.051938 -0.170571,0.329851 -0.235842,0.325624 -0.403584,-0.02613 -0.168164,-0.352642 -0.76277,-0.843941 -1.186537,-0.980386 -0.174625,-0.05623 -0.317501,-0.133977 -0.317501,-0.172778 0,-0.0388 0.164008,-0.149945 0.364468,-0.246984 0.423534,-0.205029 0.816896,-0.566884 0.989137,-0.909906 0.119192,-0.237379 0.25882,-0.45277 0.29351,-0.45277 0.0097,0 0.137272,0.184522 0.283408,0.410047 z"
         id="path9" /><path
         style="fill:#ffffff;fill-opacity:1;stroke:none;stroke-width:0.00423335mm;stroke-opacity:1"
         d="m 61.373414,-80.147965 c 0.174409,0.338413 0.904342,0.951367 1.133775,0.952077 0.07579,2.54e-4 0.183713,0.05575 0.239831,0.123369 l 0.102031,0.122938 -0.324498,0.135352 c -0.40276,0.167995 -0.838883,0.578576 -1.050377,0.988863 -0.08839,0.171466 -0.194227,0.332472 -0.235196,0.357793 -0.04097,0.02532 -0.190834,-0.141123 -0.333035,-0.369875 l -0.258546,-0.415911 -0.338474,-0.213673 c -0.186163,-0.117518 -0.437252,-0.238462 -0.557979,-0.26876 -0.35738,-0.0897 -0.332975,-0.187408 0.101837,-0.407744 0.463266,-0.234754 1.003721,-0.787087 1.084297,-1.108128 0.07651,-0.304835 0.246622,-0.264407 0.436334,0.103699 z"
         id="path10" /><path
         style="fill:#111787;fill-opacity:1;stroke:none;stroke-width:0.00423335mm;stroke-opacity:1"
         d="m 81.758132,-108.23624 c -0.139703,0.0356 -0.754164,0.0691 -1.365473,0.0746 l -1.111472,0.01 -0.08203,0.10584 c -0.07232,0.0933 -0.185452,0.88638 -0.317057,2.22251 -0.07515,0.76296 -0.194475,1.36963 -0.311237,1.58243 -0.06311,0.11501 -0.438596,0.48892 -0.834413,0.83091 -1.754381,1.5158 -3.258041,3.27624 -4.266431,4.99502 -0.481313,0.820388 -1.495632,2.959707 -1.746236,3.683015 -0.339063,0.978631 -0.719696,2.449684 -0.843438,3.259679 -0.05335,0.349251 -0.141663,0.863604 -0.196239,1.143005 l -0.09923,0.508002 2.54e-4,1.905007 2.54e-4,1.905007 0.112025,0.677336 c 0.302572,1.829444 0.696011,3.426208 1.116106,4.529685 0.09751,0.256117 0.226853,0.59932 0.287441,0.762669 0.187116,0.504486 1.021697,2.121381 1.485518,2.878012 0.504446,0.822896 1.412301,2.066244 1.718511,2.353571 l 0.207348,0.19456 0.457219,-0.209136 c 0.251469,-0.115027 0.558594,-0.234581 0.682494,-0.265677 0.1239,-0.0311 0.290727,-0.128866 0.370722,-0.217264 l 0.14546,-0.160727 -0.05851,-0.784162 c -0.03218,-0.43129 -0.115038,-1.108017 -0.184125,-1.503834 -0.17308,-0.991713 -0.347763,-2.299629 -0.474933,-3.556014 l -0.107121,-1.058338 0.0031,-2.836344 0.003,-2.836344 0.105617,-1.143005 c 0.345692,-3.74112 1.151898,-7.584472 2.223109,-10.598015 0.187493,-0.527468 0.435856,-1.263828 0.551917,-1.636368 0.116054,-0.37253 0.289936,-0.84879 0.386396,-1.05834 0.09646,-0.20955 0.23025,-0.51435 0.297316,-0.67733 0.06706,-0.16299 0.356042,-0.65407 0.642175,-1.09131 l 0.520239,-0.79498 0.05382,-0.58713 0.05382,-0.58712 0.127533,-0.12754 0.127533,-0.12753 0.330963,0.0992 0.330968,0.0992 0.632884,-0.0502 c 0.348083,-0.0276 3.011507,-0.0872 5.918712,-0.13236 l 5.285831,-0.0822 0.100166,0.0831 c 0.103349,0.0858 0.292553,0.88803 0.292553,1.24047 0,0.10965 -0.09176,0.34142 -0.203911,0.51505 -0.275142,0.42596 -1.070662,2.3554 -1.561425,3.78703 -0.266347,0.77698 -0.708223,2.436784 -0.811447,3.048015 -0.03146,0.186269 -0.14623,0.738718 -0.255056,1.227672 -0.340977,1.531995 -0.474153,2.368506 -0.606574,3.810015 l -0.128329,1.397005 -0.04632,3.429014 -0.04632,3.429013 0.09231,0.592669 c 0.156539,1.005072 0.728066,2.993605 1.192397,4.148683 0.675713,1.680951 0.794626,1.909951 1.350698,2.601185 0.283793,0.352776 0.515986,0.690697 0.515986,0.75094 0,0.06024 -0.112794,0.454609 -0.250652,0.876378 -0.137864,0.421766 -0.351903,1.100227 -0.475648,1.507687 l -0.224995,0.740836 h -0.117021 c -0.06436,0 -0.117022,-0.03893 -0.117022,-0.0865 0,-0.04758 -0.149341,-0.406749 -0.331868,-0.798164 -0.37144,-0.796521 -0.502911,-1.162235 -1.051645,-2.925352 -0.714966,-2.297228 -0.667249,-2.005051 -0.988708,-6.05369 l -0.168063,-2.116676 0.0013,-2.455343 0.0013,-2.455343 0.123579,-1.738236 c 0.161593,-2.272831 0.353944,-4.118892 0.511397,-4.908123 0.06968,-0.349251 0.145635,-0.977903 0.168792,-1.397005 0.08729,-1.579859 0.217718,-3.05575 0.295425,-3.34305 0.152487,-0.56375 0.435174,-2.16148 0.483347,-2.73181 l 0.04827,-0.5715 -0.118117,-0.007 c -0.06496,-0.004 -1.92787,-9.1e-4 -4.139795,0.006 l -4.021682,0.0131 -0.273891,0.16917 c -0.376145,0.23232 -1.328612,1.2879 -1.656981,1.83635 -0.148757,0.24847 -0.308721,0.51517 -0.355474,0.59267 -0.04675,0.0775 -0.252863,0.44572 -0.458035,0.81826 -0.205167,0.37254 -0.531174,0.94404 -0.724455,1.27 -0.352274,0.594109 -0.401589,0.69214 -0.896724,1.782501 -0.634098,1.396375 -1.443995,5.062089 -1.766742,7.996541 -0.366615,3.333314 -0.350347,7.676362 0.04019,10.730442 0.231734,1.812172 0.774478,4.133583 1.12882,4.828153 0.09879,0.193624 0.179613,0.41017 0.179613,0.481205 v 0.129155 l -0.529169,0.265203 c -0.715608,0.358638 -1.471807,0.905115 -1.909405,1.379856 l -0.361876,0.392587 0.02439,4.930253 0.02439,4.930252 0.07256,0.148167 0.07256,0.148167 h 14.883274 14.883281 l 0.0514,-0.133925 c 0.0283,-0.07366 0.0514,-2.385942 0.0514,-5.138406 v -5.00448 l -0.4445,-0.413078 c -0.86247,-0.801496 -2.67752,-1.822446 -4.25532,-2.393586 -0.79274,-0.286963 -3.107219,-0.97728 -3.682215,-1.098265 -0.162983,-0.03429 -0.369101,-0.100542 -0.458041,-0.147225 l -0.161706,-0.08487 0.119373,-0.06523 c 0.06566,-0.03588 0.347974,-0.03426 0.627374,0.0036 0.279401,0.03785 1.250957,0.149954 2.159009,0.249117 0.908056,0.09916 1.936756,0.2405 2.286016,0.314088 0.89553,0.188682 2.96903,0.836063 3.61291,1.12801 0.29815,0.135194 0.59838,0.224212 0.66716,0.197819 0.15423,-0.05919 1.12332,-1.342425 1.75749,-2.327239 1.60706,-2.495633 2.75576,-5.846158 3.01958,-8.807542 0.37596,-4.2202 -0.37982,-8.111909 -2.26627,-11.669576 -1.32359,-2.496158 -3.39257,-4.934224 -5.56544,-6.558274 -0.3713,-0.27752 -1.08352,-0.89665 -1.58269,-1.37584 -0.49918,-0.47919 -0.94061,-0.87125 -0.98096,-0.87125 -0.0404,0 -0.60349,-0.29696 -1.251422,-0.65992 -0.647927,-0.36295 -1.501899,-0.78532 -1.897716,-0.93859 -0.395817,-0.15328 -0.807189,-0.31352 -0.914155,-0.35609 l -0.194485,-0.0774 -7.256211,0.01 c -3.990914,0.006 -7.370509,0.0391 -7.510211,0.0747 z"
         id="path11" /><path
         style="fill:#111787;fill-opacity:1;stroke:none;stroke-width:0.00423335mm;stroke-opacity:1"
         d="m 37.306186,-55.677396 c -0.578289,0.203428 -0.906875,0.453285 -1.222235,0.92939 l -0.266081,0.401709 0.02537,1.954094 0.02537,1.954094 0.234467,0.354033 c 0.284249,0.429202 0.817789,0.82977 1.265961,0.95045 l 0.331327,0.08922 2.386136,-0.02597 2.386136,-0.02597 0.349524,-0.186962 c 0.456941,-0.24442 0.978028,-0.846187 1.110981,-1.283001 l 0.105834,-0.347711 v -1.597396 -1.597396 l -0.218763,-0.414779 c -0.298496,-0.565955 -0.569795,-0.832853 -1.082363,-1.064803 l -0.434548,-0.196645 -2.286009,-0.02095 -2.286009,-0.02095 z"
         id="path12" /><path
         style="fill:#ffffff;fill-opacity:1;stroke:none;stroke-width:0.00423335mm;stroke-opacity:1"
         d="m 42.140925,-53.842679 0.120051,0.164349 v 1.253823 1.253823 l -0.169334,0.169334 -0.169334,0.169334 h -2.015826 -2.015826 l -0.148628,-0.10868 -0.148628,-0.10868 1.6e-4,-1.224825 c 9.4e-5,-0.673654 0.0025,-1.309462 0.0054,-1.412905 l 0.0053,-0.188081 0.275168,-0.0823 0.275167,-0.0823 1.933124,0.01638 1.933123,0.01638 z"
         id="path13" /><path
         style="fill:#111787;fill-opacity:1;stroke:none;stroke-width:0.00423335mm;stroke-opacity:1"
         d="m 44.605152,-55.704107 -0.142834,0.142835 v 3.120583 3.120584 l 0.133048,0.133048 0.133048,0.133048 h 3.089865 3.089863 l 0.163767,-0.08765 0.163769,-0.08765 v -0.667432 c 0,-0.367088 -0.02313,-0.727699 -0.05139,-0.801358 l -0.05139,-0.133925 h -2.351251 -2.351251 l -0.08157,-0.105834 -0.08157,-0.105833 -0.01169,-2.319515 c -0.0064,-1.275732 -0.03204,-2.339869 -0.05692,-2.364746 -0.02488,-0.02488 -0.361452,-0.06183 -0.747941,-0.08212 l -0.702711,-0.03688 z"
         id="path14" /><path
         style="fill:#111787;fill-opacity:1;stroke:none;stroke-width:0.00423335mm;stroke-opacity:1"
         d="m 50.748843,-55.771296 -0.105834,0.0427 v 1.394155 1.394154 l 0.136479,0.270963 c 0.179141,0.355662 0.604313,0.802498 0.921507,0.968462 l 0.25365,0.132715 0.889355,0.05056 0.889355,0.05056 0.02381,1.095184 0.02381,1.095185 0.09239,0.11132 0.09239,0.11132 h 0.630199 c 0.346613,0 0.703898,-0.03944 0.793971,-0.08765 l 0.163768,-0.08765 v -1.140025 -1.140026 l 0.656169,-0.002 c 0.839678,-0.0026 1.23685,-0.09734 1.665934,-0.397452 l 0.344907,-0.241238 0.236122,-0.437747 0.236121,-0.437748 -0.0015,-1.29488 -0.0015,-1.29488 -0.145,-0.106026 -0.144993,-0.106026 h -0.605697 -0.605699 l -0.140121,0.154834 -0.140124,0.154834 v 1.025507 1.025507 l -0.08409,0.05197 c -0.04625,0.02858 -1.024285,0.04917 -2.173416,0.04574 l -2.089325,-0.0062 -0.112596,-0.09345 -0.112593,-0.09345 v -1.044991 -1.044992 l -0.163768,-0.08765 c -0.1644,-0.08798 -1.225615,-0.111517 -1.423738,-0.03157 z"
         id="path15" /><path
         style="fill:#111787;fill-opacity:1;stroke:none;stroke-width:0.00423335mm;stroke-opacity:1"
         d="m 59.342543,-55.73592 -0.148167,0.0863 v 3.21016 3.21016 l 0.163768,0.08765 c 0.212131,0.113528 1.23834,0.113528 1.450471,0 l 0.163768,-0.08765 v -1.558364 -1.558363 l 0.0771,-0.04765 c 0.08246,-0.05097 0.207075,0.110282 1.186771,1.53569 0.745991,1.085384 1.175098,1.634649 1.277051,1.634649 0.08722,0 0.752613,-0.882776 1.563544,-2.074341 0.643162,-0.945054 0.799722,-1.143005 0.904005,-1.143005 h 0.07154 v 1.59174 1.591739 l 0.101601,0.101601 0.101599,0.1016 h 0.654356 0.654355 l 0.133047,-0.133048 0.133049,-0.133048 v -3.165986 -3.165986 l -0.163768,-0.08765 c -0.09007,-0.04821 -0.473958,-0.08765 -0.853076,-0.08765 h -0.68931 l -0.162249,0.190501 c -0.235203,0.276158 -0.869529,1.158143 -1.645277,2.287642 l -0.677337,0.986209 -0.127,-2.21e-4 -0.127001,-2.2e-4 -0.677336,-0.981736 c -1.324531,-1.919786 -1.645991,-2.35128 -1.795729,-2.410406 -0.233227,-0.09209 -1.403062,-0.07743 -1.569784,0.01968 z"
         id="path16" /><path
         style="fill:#111787;fill-opacity:1;stroke:none;stroke-width:0.00423335mm;stroke-opacity:1"
         d="m 68.401912,-55.738437 -0.148167,0.08882 v 3.21016 3.21016 l 0.163768,0.08765 c 0.09007,0.04821 0.449303,0.08765 0.798288,0.08765 h 0.634522 l 0.133047,-0.133048 0.133049,-0.133048 v -0.92529 -0.925289 l 2.391843,-4.74e-4 2.391842,-4.74e-4 0.319817,-0.08881 c 0.431014,-0.119693 0.871717,-0.523537 1.141062,-1.045625 l 0.222328,-0.430956 4.23e-4,-0.762003 4.23e-4,-0.762003 -0.153536,-0.296335 c -0.268724,-0.518649 -0.556563,-0.842818 -0.921622,-1.037952 l -0.354894,-0.189715 -3.302013,-0.02111 -3.302013,-0.02111 z"
         id="path17" /><path
         style="fill:#ffffff;fill-opacity:1;stroke:none;stroke-width:0.00423335mm;stroke-opacity:1"
         d="m 74.737706,-53.842679 c 0.141516,0.193711 0.155154,0.50089 0.03242,0.73022 l -0.08765,0.163768 h -2.28303 -2.28303 v -0.493891 c 0,-0.27164 0.02716,-0.521048 0.06035,-0.554242 0.03319,-0.03319 1.045968,-0.04907 2.25061,-0.03528 l 2.19026,0.02507 z"
         id="path18" /><path
         style="fill:#111787;fill-opacity:1;stroke:none;stroke-width:0.00423335mm;stroke-opacity:1"
         d="m 78.735792,-55.708887 c -0.56111,0.151054 -1.051774,0.502142 -1.342538,0.960628 l -0.249474,0.393381 v 1.850743 1.850744 l 0.166202,0.364835 c 0.198743,0.436271 0.651327,0.853113 1.165608,1.073559 l 0.37557,0.160988 h 2.277772 2.277777 l 0.403383,-0.104809 0.403383,-0.104809 0.46574,-0.466693 0.465746,-0.466693 0.112351,-0.392841 0.11235,-0.392841 -0.02776,-1.639167 -0.02775,-1.639167 -0.231176,-0.393245 c -0.298815,-0.508307 -0.627623,-0.779282 -1.210019,-0.997184 l -0.470164,-0.175911 -2.134669,0.0057 -2.134664,0.0057 z"
         id="path19" /><path
         style="fill:#ffffff;fill-opacity:1;stroke:none;stroke-width:0.00423335mm;stroke-opacity:1"
         d="m 83.458396,-53.842679 0.120076,0.164349 v 1.253823 1.253823 l -0.173515,0.173514 -0.173514,0.173514 -2.066084,-0.02535 -2.066084,-0.02535 -0.10991,-0.109962 -0.109912,-0.109962 -0.0161,-1.231365 c -0.0089,-0.67725 0.01775,-1.320374 0.0591,-1.429163 l 0.07521,-0.197798 0.237232,-0.03905 c 0.130473,-0.02148 1.10712,-0.03373 2.170326,-0.02721 l 1.933098,0.01184 z"
         id="path20" /><path
         style="fill:#111787;fill-opacity:1;stroke:none;stroke-width:0.00423335mm;stroke-opacity:1"
         d="m 87.181688,-55.721686 -0.333796,0.08818 -0.400669,0.400669 -0.40067,0.400671 -0.133372,0.449102 c -0.167478,0.563966 -0.167815,0.86431 -0.0016,1.42405 l 0.131775,0.443747 0.312727,0.346566 c 0.171995,0.190612 0.446072,0.406823 0.609056,0.48047 l 0.296332,0.133904 2.328342,0.04365 2.328342,0.04365 0.02833,0.200265 c 0.01559,0.110147 -0.01485,0.243497 -0.06762,0.296335 l -0.09596,0.09607 -2.81106,0.04233 -2.811054,0.04233 -0.02459,0.749208 -0.02458,0.749209 0.09845,0.118628 0.09845,0.118628 h 2.977893 2.977892 l 0.458878,-0.275168 0.458883,-0.275167 0.247066,-0.400558 0.247066,-0.400558 0.04254,-0.594558 0.04254,-0.594558 -0.149196,-0.40189 c -0.176191,-0.474613 -0.643943,-1.001791 -1.058937,-1.193475 l -0.296335,-0.136876 -2.286008,-0.04377 -2.28601,-0.04377 -0.02795,-0.244815 -0.02795,-0.244814 0.112614,-0.07139 c 0.06194,-0.03926 1.333722,-0.07197 2.82619,-0.07269 l 2.713577,-0.0013 0.101601,-0.1016 0.101601,-0.101601 v -0.654355 -0.654354 l -0.133047,-0.133049 -0.133051,-0.133048 -2.85146,0.0088 -2.851465,0.0087 z"
         id="path21" /><path
         style="fill:#111787;fill-opacity:1;stroke:none;stroke-width:0.00423335mm;stroke-opacity:1"
         d="m 97.993029,-55.771296 -0.105834,0.0427 v 3.285899 3.285899 l 0.133925,0.05139 c 0.07366,0.02827 0.409279,0.05139 0.745824,0.05139 h 0.611892 l 0.142565,-0.105834 0.142561,-0.105833 0.02179,-2.370676 0.02179,-2.370676 h 2.267998 2.268 l 0.0802,0.127 c 0.1066,0.168775 0.10411,0.564001 -0.005,0.767569 l -0.0876,0.163768 h -1.97964 -1.97964 l -0.0367,0.105834 c -0.0202,0.05821 0.0285,0.190014 0.10826,0.292901 0.37926,0.489269 2.82878,3.228767 3.03127,3.390113 l 0.13281,0.105834 h 0.90823 c 0.96365,0 1.17608,-0.03788 1.17608,-0.209699 0,-0.110436 -0.33948,-0.529162 -1.03717,-1.279281 -0.22119,-0.237814 -0.40217,-0.473998 -0.40217,-0.524854 0,-0.05086 0.17145,-0.118176 0.381,-0.1496 l 0.381,-0.05713 0.37896,-0.251013 0.37896,-0.251013 0.26676,-0.541865 0.26676,-0.541865 -0.0388,-0.700348 -0.0388,-0.700348 -0.18211,-0.394324 c -0.21697,-0.469811 -0.73518,-0.937774 -1.18904,-1.073755 l -0.32797,-0.09826 -3.16519,0.0067 c -1.740854,0.0037 -3.212816,0.0259 -3.271024,0.04939 z"
         id="path22" /><path
         style="fill:#111787;fill-opacity:1;stroke:none;stroke-width:0.00423335mm;stroke-opacity:1"
         d="m 106.84073,-55.73592 -0.14817,0.0863 v 1.266721 1.26672 l 0.18116,0.385384 c 0.20637,0.439037 0.5614,0.823367 0.94967,1.028033 l 0.26618,0.140312 0.889,0.04772 0.88901,0.04772 0.0237,1.139602 0.0238,1.139603 0.10325,0.06561 c 0.13428,0.08532 1.34224,0.08532 1.47652,0 l 0.10325,-0.06561 0.0238,-1.139603 0.0237,-1.139602 0.87335,-0.05302 0.87334,-0.05302 0.37567,-0.193211 c 0.41189,-0.211845 0.7104,-0.55329 0.91792,-1.049969 l 0.13473,-0.322462 v -1.256686 -1.256686 l -0.16376,-0.08765 c -0.20438,-0.109379 -1.27343,-0.113085 -1.44491,-0.005 l -0.127,0.08004 -0.0423,1.125165 -0.0423,1.125166 -2.19544,0.02263 -2.19544,0.02263 -0.0681,-0.107293 c -0.0374,-0.05901 -0.0687,-0.572681 -0.0694,-1.141486 l -10e-4,-1.034192 -0.16377,-0.08765 c -0.20967,-0.112213 -1.27161,-0.109459 -1.46607,0.0038 z"
         id="path23" /></g></g></svg>
